<?xml version="1.0" encoding="UTF-8"?><svg id="Artwork" xmlns="http://www.w3.org/2000/svg" width="425.904332458227941" height="71.293200385681985" viewBox="0 0 425.904332458227941 71.293200385681985"><defs><style>.cls-1{fill:#00a1e4;}.cls-2{fill:#1c2f72;}.cls-3{fill:#00a0e3;}</style></defs><path class="cls-2" d="M197.804939071401009,49.06750242371902h-4.080078125c-.1591796875-.9541015625-.423828125-3.921875-.423828125-5.564453125-2.4912109375,4.02734375-6.359375,6.359375-13.7255859375,6.359375-11.87109375,0-19.130859375-7.7900390625-19.130859375-19.501953125,0-11.07568359375,7.525390625-19.71337890625,20.0849609375-19.71337890625,11.234375,0,16.056640625,5.72314453125,17.4873046875,11.28759765625h-5.5107421875c-1.431640625-3.55078125-4.716796875-6.9423828125-12.0302734375-6.9423828125-9.4326171875,0-14.4140625,6.62451171875-14.4140625,15.05029296875,0,8.90283203125,5.0341796875,15.42138671875,14.30859375,15.42138671875,7.8427734375,0,12.2939453125-3.974609375,12.2939453125-11.3935546875v-1.11328125h-12.1884765625v-4.50439453125h17.3291015625v20.61474609375Z"/><path class="cls-2" d="M204.275642196401009,49.06750242371902V9.21593992371902h5.0341796875v39.8515625h-5.0341796875Z"/><path class="cls-2" d="M242.378181258901009,35.66027586121902c0,7.4189453125-4.822265625,14.1494140625-14.4677734375,14.1494140625-9.0615234375,0-14.1494140625-6.73046875-14.1494140625-14.1494140625,0-7.68408203125,5.40625-14.1494140625,14.4150390625-14.1494140625,9.2734375,0,14.2021484375,7.0478515625,14.2021484375,14.1494140625ZM218.954353133901009,35.66027586121902c0,5.140625,3.2333984375,10.015625,9.115234375,10.015625,6.1474609375,0,9.115234375-4.5576171875,9.115234375-9.962890625,0-5.3525390625-3.232421875-10.06884765625-9.220703125-10.06884765625-6.0947265625,0-9.009765625,4.66357421875-9.009765625,10.01611328125Z"/><path class="cls-2" d="M246.992439071401009,9.21593992371902h5.0341796875v17.17041015625c1.32421875-2.06689453125,4.1865234375-4.87548828125,9.962890625-4.87548828125,7.4716796875,0,12.876953125,5.88232421875,12.876953125,13.67236328125,0,9.00927734375-5.564453125,14.62646484375-13.1953125,14.62646484375-5.7763671875,0-8.373046875-2.4912109375-9.7509765625-4.8759765625-.052734375,1.2724609375-.052734375,3.1796875-.1591796875,4.1337890625h-4.822265625c.0537109375-3.3916015625.0537109375-6.1474609375.0537109375-9.220703125V9.21593992371902ZM260.876228133901009,25.75011961121902c-6.1474609375,0-9.0615234375,4.29248046875-9.0615234375,9.85693359375,0,6.09423828125,3.4970703125,9.90966796875,9.0615234375,9.90966796875,6.2529296875,0,8.796875-4.875,8.796875-10.1748046875,0-4.55712890625-2.5966796875-9.591796875-8.796875-9.591796875Z"/><path class="cls-2" d="M303.114509383901009,42.44347898621902c0,2.5966796875.1591796875,5.98828125.265625,6.6240234375h-4.8232421875c-.2119140625-.9541015625-.2646484375-3.0205078125-.3173828125-3.921875-1.3779296875,2.755859375-4.4521484375,4.6640625-10.1220703125,4.6640625-7.578125,0-10.38671875-4.6103515625-10.38671875-8.638671875,0-6.8359375,6.2529296875-8.74365234375,13.9375-8.74365234375h6.517578125v-1.4306640625c0-2.91455078125-1.271484375-5.67041015625-6.9951171875-5.67041015625-5.1396484375,0-6.3056640625,2.27880859375-6.888671875,4.71630859375h-5.0341796875c.3173828125-3.55029296875,2.7021484375-8.53173828125,11.9228515625-8.53173828125,9.7509765625,0,11.923828125,4.76953125,11.923828125,9.16796875v11.7646484375ZM298.185798446401009,35.97814695496902h-6.412109375c-6.146484375,0-9.0615234375,1.37744140625-9.0615234375,4.98095703125,0,2.650390625,1.9609375,4.8759765625,6.412109375,4.8759765625,7.154296875,0,9.0615234375-4.1337890625,9.0615234375-8.69140625v-1.16552734375Z"/><path class="cls-2" d="M309.636970321401009,49.06750242371902V9.21593992371902h5.0341796875v39.8515625h-5.0341796875Z"/><path class="cls-2" d="M116.639763633000939,27.397305084808977h14.734315659400067c5.14845717540004,0,8.452690884899994,2.766335294111059,8.452690884899994,6.838995588229977,0,4.303188235290008-3.457918998400032,7.376894117641086-8.452690884899994,7.376894117641086h-14.734315659400067v-14.215889705871064ZM116.639763633000939,49.066931555389033h14.888000948300032c10.757970216999979,0,16.290640614401013-6.762152941180034,16.290640614401013-14.830630882350079,0-7.991635294119988-5.609513041801961-14.292732352939993-16.290640614401013-14.292732352939993h-22.95647861110092v40.572917647050076h8.068477662800888v-11.449554411760005ZM7.991635018402008,37.92474773185802h30.038103385698946v-17.981179411759058h-7.991635018398938v10.604285294110014H0v18.519077941180058h7.991635018402008v-11.142183823531013ZM100.887021529400954,19.943568320098962v29.123363235290071h-7.99163501830094v-22.13068235293008l-19.594874323998056,22.668580882341075-19.594874323900967-22.745423529421032v22.207525000010037h-7.991635018399052v-29.123363235290071h12.217980460798003l15.522214170402094,17.981179411759058,15.675899459099924-17.981179411759058h11.756924594298994Z"/><path class="cls-3" d="M38.029738404100954,41.613194790680041l-7.991635018398938,5.225299999999947v13.67799117646905h7.991635018398938v-18.903291176468997ZM0,8.263485967148995h7.991635018402008v13.447463235290002L0,26.936249202458953V8.263485967148995Z"/><path class="cls-1" d="M400.080415515241953,10.001564082883988c-13.335418429890979,0-25.303101636202996,11.112848980980971-25.303101636202996,25.132135387758012,0,3.590305055393969.683867611789992,6.582225934889038,1.709669029473048,8.97576263848498h-9.061245856207051V0l-41.203023610303944,49.06750242371902h36.159499973358038v22.225697961962965l5.043523636945906-3.590305055393969v-18.635392906568995h17.609591003573087c-3.0774042530511-3.761271962794012-5.12900708841903-8.719312277386052-5.12900708841903-13.762836045676977,0-11.369299342081035,9.232212759155004-20.174095073166995,20.088611096309023-20.174095073166995,13.335418429890979,0,20.772478708099015,10.001564082882965,20.772478708099015,20.601512341665966,0,11.369299342081035-9.061245856207051,20.516028887965945-20.601511805151063,20.516028887965945-4.103205670735974,0-7.778994084103033-1.282251805497935-11.198332143050038-3.590305055393969l-4.274172573682904,3.162887786893975c4.530622928105004,3.590305055394083,9.830596919470963,5.470941036791032,15.387021265258909,5.470941036791032,13.933802590206028,0,25.816002345045035-11.112848980980971,25.816002345045035-25.559552656256983.341933805893973-13.420902230878028-10.428981079786013-25.730519563657026-25.816002345045035-25.730519563657026ZM362.382213415359047,44.10946210912698h-25.303101636202996l25.303101636202996-30.261142609749982v30.261142609749982Z"/></svg>